# Blender 5.1.1
# www.blender.org
mtllib grunt_rostro.mtl
g rostro_Mesh
v -0.093750 0.421305 0.111744
v -0.093750 0.199552 0.227181
v -0.093750 0.305868 -0.110009
v -0.093750 0.084115 0.005428
v 0.093750 0.199552 0.227181
v 0.093750 0.421305 0.111744
v 0.093750 0.084115 0.005428
v 0.093750 0.305868 -0.110009
v 0.093750 0.199552 0.227181
v -0.093750 0.199552 0.227181
v 0.093750 0.421305 0.111744
v -0.093750 0.421305 0.111744
v 0.093750 0.305868 -0.110009
v -0.093750 0.305868 -0.110009
v 0.093750 0.084115 0.005428
v -0.093750 0.084115 0.005428
v 0.093750 0.421305 0.111744
v -0.093750 0.421305 0.111744
v 0.093750 0.305868 -0.110009
v -0.093750 0.305868 -0.110009
v -0.093750 0.199552 0.227181
v 0.093750 0.199552 0.227181
v -0.093750 0.084115 0.005428
v 0.093750 0.084115 0.005428
v -0.094375 0.414531 0.286280
v -0.094375 0.164769 0.275375
v -0.094375 0.425436 0.036518
v -0.094375 0.175674 0.025613
v 0.094375 0.164769 0.275375
v 0.094375 0.414531 0.286280
v 0.094375 0.175674 0.025613
v 0.094375 0.425436 0.036518
v 0.094375 0.164769 0.275375
v -0.094375 0.164769 0.275375
v 0.094375 0.414531 0.286280
v -0.094375 0.414531 0.286280
v 0.094375 0.425436 0.036518
v -0.094375 0.425436 0.036518
v 0.094375 0.175674 0.025613
v -0.094375 0.175674 0.025613
v 0.094375 0.414531 0.286280
v -0.094375 0.414531 0.286280
v 0.094375 0.425436 0.036518
v -0.094375 0.425436 0.036518
v -0.094375 0.164769 0.275375
v 0.094375 0.164769 0.275375
v -0.094375 0.175674 0.025613
v 0.094375 0.175674 0.025613
v -0.062500 0.303122 0.277057
v -0.062500 0.245404 0.387934
v -0.062500 0.192246 0.219339
v -0.062500 0.134527 0.330215
v 0.062500 0.245404 0.387934
v 0.062500 0.303122 0.277057
v 0.062500 0.134527 0.330215
v 0.062500 0.192246 0.219339
v 0.062500 0.245404 0.387934
v -0.062500 0.245404 0.387934
v 0.062500 0.303122 0.277057
v -0.062500 0.303122 0.277057
v 0.062500 0.192246 0.219339
v -0.062500 0.192246 0.219339
v 0.062500 0.134527 0.330215
v -0.062500 0.134527 0.330215
v 0.062500 0.303122 0.277057
v -0.062500 0.303122 0.277057
v 0.062500 0.192246 0.219339
v -0.062500 0.192246 0.219339
v -0.062500 0.245404 0.387934
v 0.062500 0.245404 0.387934
v -0.062500 0.134527 0.330215
v 0.062500 0.134527 0.330215
v -0.138567 0.263676 0.227935
v -0.113017 0.245779 0.316343
v -0.126653 0.173265 0.206189
v -0.101103 0.155368 0.294597
v -0.053409 0.257220 0.301432
v -0.078959 0.275117 0.213025
v -0.041495 0.166809 0.279686
v -0.067045 0.184706 0.191279
v -0.053409 0.257220 0.301432
v -0.113017 0.245779 0.316343
v -0.078959 0.275117 0.213025
v -0.138567 0.263676 0.227935
v -0.067045 0.184706 0.191279
v -0.126653 0.173265 0.206189
v -0.041495 0.166809 0.279686
v -0.101103 0.155368 0.294597
v -0.078959 0.275117 0.213025
v -0.138567 0.263676 0.227935
v -0.067045 0.184706 0.191279
v -0.126653 0.173265 0.206189
v -0.113017 0.245779 0.316343
v -0.053409 0.257220 0.301432
v -0.101103 0.155368 0.294597
v -0.041495 0.166809 0.279686
v 0.078959 0.275117 0.213025
v 0.053409 0.257220 0.301432
v 0.067045 0.184706 0.191279
v 0.041495 0.166809 0.279686
v 0.113017 0.245779 0.316343
v 0.138567 0.263676 0.227935
v 0.101103 0.155368 0.294597
v 0.126653 0.173265 0.206189
v 0.113017 0.245779 0.316343
v 0.053409 0.257220 0.301432
v 0.138567 0.263676 0.227935
v 0.078959 0.275117 0.213025
v 0.126653 0.173265 0.206189
v 0.067045 0.184706 0.191279
v 0.101103 0.155368 0.294597
v 0.041495 0.166809 0.279686
v 0.138567 0.263676 0.227935
v 0.078959 0.275117 0.213025
v 0.126653 0.173265 0.206189
v 0.067045 0.184706 0.191279
v 0.053409 0.257220 0.301432
v 0.113017 0.245779 0.316343
v 0.041495 0.166809 0.279686
v 0.101103 0.155368 0.294597
vn -1.0000 -0.0000 -0.0000
vn 1.0000 -0.0000 -0.0000
vn -0.0000 0.4617 0.8870
vn -0.0000 -0.4617 -0.8870
vn -0.0000 0.8870 -0.4617
vn -0.0000 -0.8870 0.4617
vn -0.0000 -0.0436 0.9990
vn -0.0000 0.0436 -0.9990
vn -0.0000 0.9990 0.0436
vn -0.0000 -0.9990 -0.0436
vn -0.0000 0.8870 0.4617
vn -0.0000 -0.8870 -0.4617
vn -0.0000 0.4617 -0.8870
vn -0.0000 -0.4617 0.8870
vn -0.9537 -0.1831 0.2386
vn 0.9537 0.1831 -0.2386
vn -0.1271 0.9644 0.2320
vn 0.1271 -0.9644 -0.2320
vn -0.2725 0.1909 -0.9430
vn 0.2725 -0.1909 0.9430
vn -0.9537 0.1831 -0.2386
vn 0.9537 -0.1831 0.2386
vn 0.1271 0.9644 0.2320
vn -0.1271 -0.9644 -0.2320
vn 0.2725 0.1909 -0.9430
vn -0.2725 -0.1909 0.9430
vt 0.437744 0.343994
vt 0.437744 0.406006
vt 0.499756 0.343994
vt 0.499756 0.406006
vt 0.547119 0.343994
vt 0.547119 0.406006
vt 0.609131 0.343994
vt 0.609131 0.406006
vt 0.546631 0.343506
vt 0.546631 0.281494
vt 0.500244 0.343506
vt 0.500244 0.281494
vt 0.593506 0.281494
vt 0.593506 0.343506
vt 0.547119 0.281494
vt 0.547119 0.343506
vt 0.609619 0.343994
vt 0.609619 0.406006
vt 0.656006 0.343994
vt 0.656006 0.406006
vt 0.500244 0.343994
vt 0.500244 0.406006
vt 0.546631 0.343994
vt 0.546631 0.406006
vt 0.437744 0.172119
vt 0.437744 0.234131
vt 0.499756 0.172119
vt 0.499756 0.234131
vt 0.547119 0.172119
vt 0.547119 0.234131
vt 0.609131 0.172119
vt 0.609131 0.234131
vt 0.546631 0.171631
vt 0.546631 0.109619
vt 0.500244 0.171631
vt 0.500244 0.109619
vt 0.593506 0.109619
vt 0.593506 0.171631
vt 0.547119 0.109619
vt 0.547119 0.171631
vt 0.609619 0.172119
vt 0.609619 0.234131
vt 0.656006 0.172119
vt 0.656006 0.234131
vt 0.500244 0.172119
vt 0.500244 0.234131
vt 0.546631 0.172119
vt 0.546631 0.234131
vt 0.172119 0.203369
vt 0.172119 0.234131
vt 0.202881 0.203369
vt 0.202881 0.234131
vt 0.234619 0.203369
vt 0.234619 0.234131
vt 0.265381 0.203369
vt 0.265381 0.234131
vt 0.234131 0.202881
vt 0.234131 0.172119
vt 0.203369 0.202881
vt 0.203369 0.172119
vt 0.265381 0.172119
vt 0.265381 0.202881
vt 0.234619 0.172119
vt 0.234619 0.202881
vt 0.265869 0.203369
vt 0.265869 0.234131
vt 0.296631 0.203369
vt 0.296631 0.234131
vt 0.203369 0.203369
vt 0.203369 0.234131
vt 0.234131 0.203369
vt 0.234131 0.234131
vt 0.265869 0.187744
vt 0.265869 0.202881
vt 0.281006 0.187744
vt 0.281006 0.202881
vt 0.297119 0.187744
vt 0.297119 0.202881
vt 0.312256 0.187744
vt 0.312256 0.202881
vt 0.296631 0.187256
vt 0.296631 0.172119
vt 0.281494 0.187256
vt 0.281494 0.172119
vt 0.312256 0.172119
vt 0.312256 0.187256
vt 0.297119 0.172119
vt 0.297119 0.187256
vt 0.312744 0.187744
vt 0.312744 0.202881
vt 0.327881 0.187744
vt 0.327881 0.202881
vt 0.281494 0.187744
vt 0.281494 0.202881
vt 0.296631 0.187744
vt 0.296631 0.202881
vt 0.000244 0.234619
vt 0.000244 0.249756
vt 0.015381 0.234619
vt 0.015381 0.249756
vt 0.031494 0.234619
vt 0.031494 0.249756
vt 0.046631 0.234619
vt 0.046631 0.249756
vt 0.031006 0.234131
vt 0.031006 0.218994
vt 0.015869 0.234131
vt 0.015869 0.218994
vt 0.046631 0.218994
vt 0.046631 0.234131
vt 0.031494 0.218994
vt 0.031494 0.234131
vt 0.047119 0.234619
vt 0.047119 0.249756
vt 0.062256 0.234619
vt 0.062256 0.249756
vt 0.015869 0.234619
vt 0.015869 0.249756
vt 0.031006 0.234619
vt 0.031006 0.249756
s 1
g off
g rostro_material_0
usemtl material_0
f 1/1/1 3/2/1 2/3/1
f 3/2/1 4/4/1 2/3/1
f 5/5/2 7/6/2 6/7/2
f 7/6/2 8/8/2 6/7/2
f 9/9/3 11/10/3 10/11/3
f 11/10/3 12/12/3 10/11/3
f 13/13/4 15/14/4 14/15/4
f 15/14/4 16/16/4 14/15/4
f 17/17/5 19/18/5 18/19/5
f 19/18/5 20/20/5 18/19/5
f 21/21/6 23/22/6 22/23/6
f 23/22/6 24/24/6 22/23/6
f 25/25/1 27/26/1 26/27/1
f 27/26/1 28/28/1 26/27/1
f 29/29/2 31/30/2 30/31/2
f 31/30/2 32/32/2 30/31/2
f 33/33/7 35/34/7 34/35/7
f 35/34/7 36/36/7 34/35/7
f 37/37/8 39/38/8 38/39/8
f 39/38/8 40/40/8 38/39/8
f 41/41/9 43/42/9 42/43/9
f 43/42/9 44/44/9 42/43/9
f 45/45/10 47/46/10 46/47/10
f 47/46/10 48/48/10 46/47/10
f 49/49/1 51/50/1 50/51/1
f 51/50/1 52/52/1 50/51/1
f 53/53/2 55/54/2 54/55/2
f 55/54/2 56/56/2 54/55/2
f 57/57/11 59/58/11 58/59/11
f 59/58/11 60/60/11 58/59/11
f 61/61/12 63/62/12 62/63/12
f 63/62/12 64/64/12 62/63/12
f 65/65/13 67/66/13 66/67/13
f 67/66/13 68/68/13 66/67/13
f 69/69/14 71/70/14 70/71/14
f 71/70/14 72/72/14 70/71/14
f 73/73/15 75/74/15 74/75/15
f 75/74/15 76/76/15 74/75/15
f 77/77/16 79/78/16 78/79/16
f 79/78/16 80/80/16 78/79/16
f 81/81/17 83/82/17 82/83/17
f 83/82/17 84/84/17 82/83/17
f 85/85/18 87/86/18 86/87/18
f 87/86/18 88/88/18 86/87/18
f 89/89/19 91/90/19 90/91/19
f 91/90/19 92/92/19 90/91/19
f 93/93/20 95/94/20 94/95/20
f 95/94/20 96/96/20 94/95/20
f 97/97/21 99/98/21 98/99/21
f 99/98/21 100/100/21 98/99/21
f 101/101/22 103/102/22 102/103/22
f 103/102/22 104/104/22 102/103/22
f 105/105/23 107/106/23 106/107/23
f 107/106/23 108/108/23 106/107/23
f 109/109/24 111/110/24 110/111/24
f 111/110/24 112/112/24 110/111/24
f 113/113/25 115/114/25 114/115/25
f 115/114/25 116/116/25 114/115/25
f 117/117/26 119/118/26 118/119/26
f 119/118/26 120/120/26 118/119/26
